<svg xmlns="http://www.w3.org/2000/svg" xmlns:xlink="http://www.w3.org/1999/xlink" version="1.1" x="0px" y="0px" width="100px" height="100px" viewBox="0 0 100 100" enable-background="new 0 0 100 100" xml:space="preserve">
<g id="Captions">
</g>
<g id="Your_Icon">
	<path d="M84,44v-8c0,0-2,0-7,0V25c0,0-5.38,0-7.118,0c-4.316,0-5.566,5.308-5.566,5.308L62.613,36c-9.79,0-19.956,0-22.642,0   C34.41,36,33,40.943,33,42.944C33,43.463,33,44,33,44H0.25c2.722,11,8.689,18.176,16.765,24.356   c0.629-0.103,1.036-0.272,1.896-0.845c1.667-1.109,4.188-2.731,8.644-2.731c4.457,0,6.976,1.697,8.643,2.805   c1.184,0.786,1.502,1.012,2.734,1.012c1.233,0,1.552-0.205,2.736-0.993c1.668-1.107,4.188-2.779,8.644-2.779   s6.976,1.679,8.643,2.784c1.185,0.788,1.504,0.999,2.739,0.999c1.232,0,1.55-0.21,2.735-0.996c1.667-1.109,4.187-2.784,8.644-2.784   s6.978,1.675,8.646,2.782c0.692,0.461,1.091,0.525,1.547,0.666C91.286,62.104,97.211,53,99.92,44H84z M45,49h-6v-6h6V49z M56,49h-7   v-6h7V49z M67,49h-6v-6h6V49z M78,49h-6v-6h6V49z"/>
	<path d="M84.458,72.61c-2.442,0-3.604-0.771-4.952-1.668c-1.492-0.989-3.184-2.112-6.433-2.112c-3.248,0-4.938,1.123-6.43,2.112   c-1.347,0.897-2.51,1.668-4.949,1.668c-2.444,0-3.607-0.771-4.953-1.668c-1.493-0.989-3.181-2.112-6.429-2.112   c-3.248,0-4.938,1.123-6.429,2.112c-1.346,0.897-2.509,1.668-4.951,1.668c-2.441,0-3.604-0.771-4.949-1.668   c-1.49-0.989-3.18-2.112-6.428-2.112c-3.248,0-4.938,1.123-6.43,2.112c-1.347,0.897-2.509,1.668-4.953,1.668   c-0.738,0-1.334,0.598-1.334,1.334c0,0.737,0.597,1.335,1.334,1.335c3.249,0,4.939-1.123,6.43-2.114   c1.346-0.894,2.509-1.666,4.953-1.666c2.441,0,3.604,0.772,4.95,1.666c1.491,0.991,3.18,2.114,6.427,2.114   c3.248,0,4.937-1.123,6.429-2.114c1.346-0.894,2.509-1.666,4.952-1.666c2.442,0,3.605,0.772,4.95,1.666   c1.492,0.991,3.183,2.114,6.432,2.114c3.246,0,4.935-1.123,6.427-2.114c1.346-0.894,2.508-1.666,4.952-1.666   s3.607,0.772,4.956,1.666c1.49,0.991,3.181,2.114,6.429,2.114c0.738,0,1.334-0.598,1.334-1.335   C85.792,73.208,85.196,72.61,84.458,72.61z"/>
</g>
</svg>