<svg xmlns="http://www.w3.org/2000/svg" xmlns:xlink="http://www.w3.org/1999/xlink" version="1.1" id="Calque_1" x="0px" y="0px" width="100px" height="100px" viewBox="0 0 100 100" enable-background="new 0 0 100 100" xml:space="preserve">
<g id="Captions">
	<rect x="-192" width="185" height="99"/>
	<rect y="-36" width="100" height="30"/>
	<text transform="matrix(1 0 0 1 66 -19.5)" fill="#000000" font-family="'HelveticaCondensed-Medium'" font-size="2.4">http://thenounproject.com</text>
	<text transform="matrix(1 0 0 1 7.166 -24.5)" fill="#000000" font-family="'HelveticaCondensed-Medium'" font-size="6.1578">The Noun Project</text>
	<text transform="matrix(1 0 0 1 8.2861 -19.7002)" fill="#000000" font-family="'HelveticaCondensed-Medium'" font-size="4">Icon Template</text>
	<text transform="matrix(1 0 0 1 -178.5 10.5)" fill="#000000" font-family="'HelveticaCondensed-Medium'" font-size="6.1578">Reminders</text>
	<line fill="#000000" stroke="#FFFFFF" stroke-miterlimit="10" x1="8" y1="-14.5" x2="18" y2="-14.5"/>
	<line fill="#000000" stroke="#FFFFFF" stroke-miterlimit="10" x1="-179" y1="16.5" x2="-162" y2="16.5"/>
	<g>
		<g>
			<g>
				<rect x="-170.802" y="31.318" fill="#000000" width="8.721" height="8.642"/>
				<path fill="#000000" d="M-164.455,42.312h4.747v-4.703h-4.747V42.312z M-159.266,42.749h-5.63V37.17h5.63V42.749      L-159.266,42.749z M-166.221,44.062h8.279v-8.203h-8.279V44.062L-166.221,44.062z M-157.5,44.5h-9.163v-9.079h9.163V44.5      L-157.5,44.5z"/>
				<polygon fill="#000000" points="-166.149,44.133 -166.292,43.991 -158.013,35.787 -157.871,35.929     "/>
			</g>
		</g>
	</g>
	<rect x="-179" y="58" fill="none" width="35" height="32.5"/>
	<text transform="matrix(1 0 0 1 -179 60.1289)" fill="#000000" font-family="'HelveticaCondensed-Medium'" font-size="3">Strokes</text>
	<text transform="matrix(1 0 0 1 -179 65.1289)" fill="#000000" font-family="'ArialMT'" font-size="2.4">Try to keep strokes at 4px</text>
	<text transform="matrix(1 0 0 1 -179 70.1289)" fill="#000000" font-family="'ArialMT'" font-size="2.4">Minimum stroke weight is 2px</text>
	<text transform="matrix(1 0 0 1 -179 74.6289)" fill="#000000" font-family="'ArialMT'" font-size="2.4">For thicker strokes use even </text>
	<text transform="matrix(1 0 0 1 -179 77.6289)" fill="#000000" font-family="'ArialMT'" font-size="2.4">numbers: 6px, 8px etc.</text>
	<text transform="matrix(1 0 0 1 -179 82.1289)" fill="#000000" font-family="'HelveticaCondensed-Medium'" font-size="2.4">Remember to expand strokes </text>
	<text transform="matrix(1 0 0 1 -179 85.1289)" fill="#000000" font-family="'HelveticaCondensed-Medium'" font-size="2.4">before saving as an SVG </text>
	<rect x="-136.5" y="58" fill="none" width="35" height="32.5"/>
	<text transform="matrix(1 0 0 1 -136.5 60.1289)" fill="#000000" font-family="'HelveticaCondensed-Medium'" font-size="3">Size</text>
	<text transform="matrix(1 0 0 1 -136.5 65.1289)" fill="#000000" font-family="'ArialMT'" font-size="2.4">Cannot be wider or taller than </text>
	<text transform="matrix(1 0 0 1 -136.5 68.6289)" fill="#000000" font-family="'ArialMT'" font-size="2.4">100px (artboard size)</text>
	<text transform="matrix(1 0 0 1 -136.5 73.6289)" fill="#000000" font-family="'ArialMT'" font-size="2.4">Scale your icon to fill as much of </text>
	<text transform="matrix(1 0 0 1 -136.5 76.6289)" fill="#000000" font-family="'ArialMT'" font-size="2.4">the artboard as possible</text>
	<rect x="-94" y="58" fill="none" width="35" height="32.5"/>
	<text transform="matrix(1 0 0 1 -94 60.1289)" fill="#000000" font-family="'HelveticaCondensed-Medium'" font-size="3">Ungroup</text>
	<text transform="matrix(1 0 0 1 -94 65.1289)" fill="#000000" font-family="'ArialMT'" font-size="2.4">If your design has more than one </text>
	<text transform="matrix(1 0 0 1 -94 68.1289)" fill="#000000" font-family="'ArialMT'" font-size="2.4">shape, make sure to ungroup</text>
	<rect x="-50" y="58" fill="none" width="35" height="32.5"/>
	<text transform="matrix(1 0 0 1 -50 60.1289)" fill="#000000" font-family="'HelveticaCondensed-Medium'" font-size="3">Save as</text>
	<text transform="matrix(1 0 0 1 -50 65.1289)" fill="#000000" font-family="'ArialMT'" font-size="2.4">Save as .SVG and make sure &#8220;Use </text>
	<text transform="matrix(1 0 0 1 -50 68.1289)" fill="#000000" font-family="'ArialMT'" font-size="2.4">Artboards&#8221; is checked</text>
	<text transform="matrix(1.0074 0 0 1 -125.542 30.5928)" fill="#000000" font-family="'ArialMT'" font-size="2.5731">100px</text>
	<text transform="matrix(1.0074 0 0 1 -41 39)" fill="#000000" font-family="'HelveticaCondensed-Medium'" font-size="5.1462">.SVG</text>
	<rect x="-126.514" y="34.815" fill="#000000" width="10.261" height="10.185"/>
	<rect x="-126.477" y="31.766" fill="#000000" width="0.522" height="2.337"/>
	<rect x="-116.813" y="31.766" fill="#000000" width="0.523" height="2.337"/>
	<rect x="-127" y="32.337" fill="#000000" width="11.233" height="0.572"/>
	<g>
		<rect x="-83.805" y="33.844" fill="#000000" width="10.305" height="10.156"/>
		<rect x="-76.809" y="28.707" fill="#000000" width="3.308" height="3.261"/>
	</g>
	<rect x="-178.5" y="22.5" fill="#000000" stroke="#FFFFFF" stroke-miterlimit="10" width="30" height="30"/>
	<rect x="-136.5" y="22.5" fill="#000000" stroke="#FFFFFF" stroke-miterlimit="10" width="30" height="30"/>
	<rect x="-93.5" y="22.5" fill="#000000" stroke="#FFFFFF" stroke-miterlimit="10" width="30" height="30"/>
	<rect x="-49.5" y="22.5" fill="#000000" stroke="#FFFFFF" stroke-miterlimit="10" width="30" height="30"/>
</g>
<path d="M77.252,54.824V52.5l-0.43-0.208l-1.415,0.989c-0.335,0.073-3.435,0.706-7.143-1.346c-3.851-2.136-5.484-6.473-5.5-6.517  l-0.041-0.113h-0.686v-0.665h-0.599v-9.594l2.196-1.726c-0.094,0.188-0.342,0.722-0.297,1.067c0.04,0.306,0.371,0.537,0.77,0.537  c0.251,0,0.494-0.093,0.684-0.263c0.487-0.436,0.161-1.092,0.058-1.273v-2.232l-0.235,0.093c-0.008,0.003-0.819,0.319-2.171,0.319  c-1.333,0-3.442-0.314-5.927-1.81c-4.045-2.432-4.893-5.757-5.048-6.614c0.446,0.041,0.867,0.062,1.252,0.062  c2.17,0,2.661-0.644,2.709-0.717l0.114-0.171l-0.188-0.082c-2.111-0.912-3.507-2.353-3.759-2.625  c-0.03-0.862-0.629-1.189-1.054-1.266v-0.178h1.467v-1.182h-1.521v-0.354h1.289V15.36h-1.233v-0.374h0.985v-1.095h-1.11v-0.622  h0.946v-1.021h-1.001v-0.516h0.806v-0.986h-0.821v-0.354h0.679V9.314h-0.713V8.66c0.195-0.077,0.535-0.27,0.535-0.675  c0-0.379-0.292-0.537-0.535-0.585V5.16c0.718-0.022,1.025-0.748,1.039-0.779l0.043-0.105l-1.245-1.263v-0.25  c0.158-0.043,0.304-0.181,0.304-0.468c0-0.345-0.217-0.468-0.404-0.468c-0.038,0-0.069,0.005-0.091,0.009h-0.291  c-0.021-0.004-0.053-0.009-0.091-0.009c-0.194,0-0.401,0.123-0.401,0.468c0,0.286,0.145,0.424,0.301,0.467v0.251l-1.245,1.263  l0.043,0.105c0.013,0.031,0.324,0.756,1.042,0.778v2.238c-0.243,0.048-0.535,0.206-0.535,0.585c0,0.406,0.34,0.598,0.535,0.675  v0.654h-0.713v1.077h0.678v0.354h-0.824v0.986h0.808v0.515h-1.004v1.021h0.949v0.622h-1.11v1.095h0.985v0.374h-1.233v1.272h1.286  v0.354h-1.519v1.182h1.466v0.178c-0.425,0.076-1.023,0.403-1.053,1.266c-0.252,0.273-1.645,1.712-3.762,2.625l-0.189,0.082  l0.115,0.172c0.049,0.073,0.542,0.716,2.712,0.716c0.385,0,0.806-0.021,1.253-0.062c-0.155,0.857-1.004,4.183-5.048,6.614  c-2.484,1.496-4.594,1.81-5.926,1.81c-1.352,0-2.164-0.316-2.172-0.319l-0.235-0.093v2.23c-0.178,0.301-0.367,0.896,0.057,1.274  c0.19,0.17,0.433,0.263,0.684,0.263c0.398,0,0.729-0.23,0.769-0.536c0.046-0.345-0.201-0.879-0.295-1.066l2.195,1.725v9.594h-0.598  v0.665h-0.686l-0.042,0.113c-0.016,0.043-1.648,4.381-5.501,6.517c-3.708,2.054-6.81,1.419-7.143,1.346l-1.414-0.989l-0.429,0.208  v2.324c-0.19,0.125-0.589,0.464-0.546,1.086c0.051,0.752,0.914,1.004,1.403,0.972c0.254-0.021,0.572-0.209,0.771-0.457  c0.176-0.219,0.25-0.467,0.217-0.715c-0.065-0.501-0.541-0.93-0.731-1.082l0.018-0.284c0.669,0.602,2.455,2.077,3.996,2.197v0.889  h1.049v24.897l-0.786,0.572v0.452h-1.107v1.094h1.146v7.126c-0.26,0.144-0.894,0.602-0.894,1.646v2.365h-2.006v2.063H74.72V95.58  h-2.003v-2.365c0-1.044-0.635-1.502-0.895-1.646v-7.126h1.146V83.35h-1.109v-0.452l-0.783-0.572V57.428h1.05v-0.889  c1.541-0.12,3.324-1.596,3.993-2.197l0.019,0.284c-0.189,0.153-0.664,0.582-0.73,1.082c-0.033,0.25,0.043,0.498,0.219,0.716  c0.2,0.248,0.517,0.436,0.773,0.456c0.022,0.002,0.047,0.003,0.074,0.003c0.506,0,1.276-0.26,1.325-0.976  C77.839,55.288,77.441,54.949,77.252,54.824z M38.73,82.169l-0.912,0.501v0.768h-4.684l-0.046-0.644l-0.708-0.489V61.316h6.049  L38.73,82.169z M45.09,44.612v-8.286h9.447v8.286H45.09z M56.229,83.438H43.419v-0.736l-0.643-0.681V61.316h14.177v20.836  l-0.755,0.65L56.229,83.438z M43.72,36.327v8.286h-4.401v-8.286H43.72z M60.897,82.169l0.301-20.853h6.048v20.99l-0.706,0.49  l-0.046,0.643h-4.684v-0.77L60.897,82.169z M60.311,36.327v8.286h-4.404v-8.286H60.311z"/>
</svg>